<svg xmlns="http://www.w3.org/2000/svg" width="256" height="256" viewBox="0 0 256 256" role="img" aria-label="GD LEX PCT Validator icon">
  <defs>
    <linearGradient id="bg" x1="0" y1="0" x2="1" y2="1">
      <stop offset="0%" stop-color="#1f2630"/>
      <stop offset="100%" stop-color="#16202b"/>
    </linearGradient>
  </defs>
  <rect x="16" y="16" width="224" height="224" rx="28" fill="url(#bg)"/>
  <path d="M62 86h78l24 24v62c0 8-6 14-14 14H62c-8 0-14-6-14-14v-72c0-8 6-14 14-14z" fill="#2a3442" stroke="#4b5e73" stroke-width="4"/>
  <path d="M140 86v24h24" fill="none" stroke="#4b5e73" stroke-width="4" stroke-linecap="round" stroke-linejoin="round"/>
  <path d="M158 154c0 24-20 44-44 44s-44-20-44-44 20-44 44-44 44 20 44 44z" fill="#1f7a45" opacity="0.9"/>
  <path d="M93 154l15 15 28-30" fill="none" stroke="#e9fff1" stroke-width="9" stroke-linecap="round" stroke-linejoin="round"/>
</svg>
